<svg width="96" height="9" viewBox="0 0 96 9" fill="none" xmlns="http://www.w3.org/2000/svg">
<path d="M1.9 8L2.77 2.07H0.665L0.86 0.77H6.485L6.29 2.07H4.22L3.34 8H1.9ZM6.32039 8L7.39539 0.57H8.84039L8.41039 3.51C8.55372 3.33 8.74539 3.16667 8.98539 3.02C9.22872 2.87333 9.54872 2.8 9.94539 2.8C10.2654 2.8 10.5487 2.86833 10.7954 3.005C11.0421 3.13833 11.2271 3.32667 11.3504 3.57C11.4771 3.81333 11.5171 4.09833 11.4704 4.425L10.9504 8H9.50039L9.99039 4.63C10.0237 4.41 9.96706 4.23833 9.82039 4.115C9.67706 3.99167 9.49039 3.93 9.26039 3.93C9.10706 3.93 8.95706 3.95833 8.81039 4.015C8.66372 4.07167 8.53872 4.155 8.43539 4.265C8.33206 4.375 8.27039 4.51 8.25039 4.67L7.76539 8H6.32039ZM12.2591 8L12.9891 2.83H14.3741L13.6441 8H12.2591ZM13.0791 2.09L13.2641 0.775H14.6741L14.4891 2.09H13.0791ZM16.9618 8.1C16.6118 8.1 16.2818 8.04167 15.9718 7.925C15.6618 7.805 15.4101 7.61833 15.2168 7.365C15.0268 7.10833 14.9301 6.77667 14.9268 6.37H16.1818C16.1985 6.55333 16.2551 6.69833 16.3518 6.805C16.4485 6.91167 16.5651 6.98833 16.7018 7.035C16.8385 7.07833 16.9701 7.1 17.0968 7.1C17.3668 7.1 17.5901 7.05667 17.7668 6.97C17.9435 6.88 18.0451 6.74333 18.0718 6.56C18.0918 6.42 18.0585 6.30833 17.9718 6.225C17.8851 6.14167 17.7301 6.07833 17.5068 6.035L16.6568 5.845C16.2201 5.74833 15.8818 5.585 15.6418 5.355C15.4018 5.12167 15.3101 4.79167 15.3668 4.365C15.4101 4.055 15.5285 3.77667 15.7218 3.53C15.9185 3.28333 16.1851 3.08833 16.5218 2.945C16.8585 2.80167 17.2585 2.73 17.7218 2.73C18.3485 2.73 18.8285 2.87 19.1618 3.15C19.4985 3.43 19.6335 3.825 19.5668 4.335H18.3568C18.3501 4.135 18.2751 3.98167 18.1318 3.875C17.9918 3.765 17.8035 3.71 17.5668 3.71C17.3268 3.71 17.1201 3.755 16.9468 3.845C16.7768 3.935 16.6801 4.07167 16.6568 4.255C16.6368 4.39167 16.6851 4.5 16.8018 4.58C16.9218 4.65667 17.1151 4.72333 17.3818 4.78L18.1668 4.97C18.4401 5.04 18.6568 5.13667 18.8168 5.26C18.9801 5.38 19.1001 5.51167 19.1768 5.655C19.2568 5.79833 19.3051 5.94333 19.3218 6.09C19.3418 6.23333 19.3418 6.36333 19.3218 6.48C19.2751 6.82333 19.1451 7.11667 18.9318 7.36C18.7185 7.6 18.4418 7.78333 18.1018 7.91C17.7651 8.03667 17.3851 8.1 16.9618 8.1ZM22.6995 8L23.3145 3.845H22.3895L22.5445 2.83H23.4645L23.5745 2.085C23.6379 1.66833 23.8062 1.345 24.0795 1.115C24.3529 0.885 24.7079 0.77 25.1445 0.77H26.3095L26.1645 1.74H25.5145C25.3345 1.74 25.2029 1.78667 25.1195 1.88C25.0395 1.97 24.9829 2.12 24.9495 2.33L24.8795 2.83H25.9595L25.8045 3.845H24.7545L24.1395 8H22.6995ZM26.1795 8L26.9095 2.83H28.2945L27.5645 8H26.1795ZM26.9995 2.09L27.1845 0.775H28.5945L28.4095 2.09H26.9995ZM31.1426 8.1C30.6459 8.1 30.2242 7.99333 29.8776 7.78C29.5309 7.56333 29.2809 7.25833 29.1276 6.865C28.9776 6.47167 28.9426 6.00833 29.0226 5.475C29.0959 4.95833 29.2592 4.49333 29.5126 4.08C29.7692 3.66333 30.0976 3.335 30.4976 3.095C30.8976 2.85167 31.3542 2.73 31.8676 2.73C32.3842 2.73 32.7992 2.84167 33.1126 3.065C33.4292 3.285 33.6476 3.59333 33.7676 3.99C33.8876 4.38333 33.9092 4.83833 33.8326 5.355L33.7726 5.75H30.4076C30.3642 6.01333 30.3692 6.24333 30.4226 6.44C30.4792 6.63333 30.5792 6.78333 30.7226 6.89C30.8659 6.99333 31.0492 7.045 31.2726 7.045C31.5126 7.045 31.7292 6.99167 31.9226 6.885C32.1192 6.77833 32.2726 6.60333 32.3826 6.36H33.6776C33.5676 6.72667 33.3792 7.04 33.1126 7.3C32.8459 7.56 32.5392 7.75833 32.1926 7.895C31.8459 8.03167 31.4959 8.1 31.1426 8.1ZM30.5276 4.88H32.5576C32.5876 4.67333 32.5776 4.48333 32.5276 4.31C32.4809 4.13667 32.3892 4 32.2526 3.9C32.1192 3.8 31.9392 3.75 31.7126 3.75C31.4992 3.75 31.3076 3.805 31.1376 3.915C30.9709 4.02167 30.8342 4.16167 30.7276 4.335C30.6209 4.50833 30.5542 4.69 30.5276 4.88ZM36.0888 8.09C35.7154 8.09 35.4254 8.045 35.2188 7.955C35.0121 7.865 34.8671 7.74667 34.7838 7.6C34.7038 7.45 34.6621 7.285 34.6588 7.105C34.6554 6.92167 34.6654 6.73667 34.6888 6.55L35.5788 0.57H36.9988L36.1388 6.37C36.1121 6.56 36.1288 6.715 36.1888 6.835C36.2488 6.95167 36.3871 7.02333 36.6038 7.05L36.8338 7.065L36.6988 7.965C36.5954 7.99833 36.4904 8.02667 36.3838 8.05C36.2804 8.07667 36.1821 8.09 36.0888 8.09ZM39.508 8.1C38.828 8.1 38.3314 7.86167 38.018 7.385C37.708 6.905 37.6114 6.23833 37.728 5.385C37.838 4.575 38.098 3.93 38.508 3.45C38.9214 2.97 39.4514 2.73 40.098 2.73C40.278 2.73 40.443 2.75167 40.593 2.795C40.7464 2.835 40.8814 2.89167 40.998 2.965C41.118 3.03833 41.2214 3.12333 41.308 3.22C41.3947 3.31667 41.4614 3.42 41.508 3.53L41.913 0.57H43.368L42.348 8H41.298L41.278 6.94C41.2147 7.08333 41.1314 7.22333 41.028 7.36C40.928 7.49667 40.8064 7.62167 40.663 7.735C40.5197 7.845 40.353 7.93333 40.163 8C39.973 8.06667 39.7547 8.1 39.508 8.1ZM39.973 7.05C40.323 7.05 40.603 6.92167 40.813 6.665C41.023 6.40833 41.1697 5.975 41.253 5.365C41.2997 5.01167 41.2997 4.71833 41.253 4.485C41.2064 4.25167 41.1147 4.07833 40.978 3.965C40.8447 3.84833 40.6614 3.79 40.428 3.79C40.1214 3.79 39.8497 3.91167 39.613 4.155C39.3797 4.395 39.2247 4.79833 39.148 5.365C39.068 5.94167 39.1047 6.36667 39.258 6.64C39.4114 6.91333 39.6497 7.05 39.973 7.05ZM45.804 8L46.534 2.83H47.919L47.189 8H45.804ZM46.624 2.09L46.809 0.775H48.219L48.034 2.09H46.624ZM50.5067 8.1C50.1567 8.1 49.8267 8.04167 49.5167 7.925C49.2067 7.805 48.9551 7.61833 48.7617 7.365C48.5717 7.10833 48.4751 6.77667 48.4717 6.37H49.7267C49.7434 6.55333 49.8001 6.69833 49.8967 6.805C49.9934 6.91167 50.1101 6.98833 50.2467 7.035C50.3834 7.07833 50.5151 7.1 50.6417 7.1C50.9117 7.1 51.1351 7.05667 51.3117 6.97C51.4884 6.88 51.5901 6.74333 51.6167 6.56C51.6367 6.42 51.6034 6.30833 51.5167 6.225C51.4301 6.14167 51.2751 6.07833 51.0517 6.035L50.2017 5.845C49.7651 5.74833 49.4267 5.585 49.1867 5.355C48.9467 5.12167 48.8551 4.79167 48.9117 4.365C48.9551 4.055 49.0734 3.77667 49.2667 3.53C49.4634 3.28333 49.7301 3.08833 50.0667 2.945C50.4034 2.80167 50.8034 2.73 51.2667 2.73C51.8934 2.73 52.3734 2.87 52.7067 3.15C53.0434 3.43 53.1784 3.825 53.1117 4.335H51.9017C51.8951 4.135 51.8201 3.98167 51.6767 3.875C51.5367 3.765 51.3484 3.71 51.1117 3.71C50.8717 3.71 50.6651 3.755 50.4917 3.845C50.3217 3.935 50.2251 4.07167 50.2017 4.255C50.1817 4.39167 50.2301 4.5 50.3467 4.58C50.4667 4.65667 50.6601 4.72333 50.9267 4.78L51.7117 4.97C51.9851 5.04 52.2017 5.13667 52.3617 5.26C52.5251 5.38 52.6451 5.51167 52.7217 5.655C52.8017 5.79833 52.8501 5.94333 52.8667 6.09C52.8867 6.23333 52.8867 6.36333 52.8667 6.48C52.8201 6.82333 52.6901 7.11667 52.4767 7.36C52.2634 7.6 51.9867 7.78333 51.6467 7.91C51.3101 8.03667 50.9301 8.1 50.5067 8.1ZM55.7388 8L56.4688 2.83H57.8638L57.6938 4.055C57.8104 3.79167 57.9571 3.56167 58.1338 3.365C58.3104 3.165 58.5121 3.01 58.7388 2.9C58.9654 2.78667 59.2138 2.73 59.4838 2.73C59.5304 2.73 59.5721 2.73333 59.6088 2.74C59.6488 2.74333 59.6771 2.75 59.6938 2.76L59.4938 4.15C59.4704 4.13667 59.4388 4.12833 59.3988 4.125C59.3621 4.12167 59.3271 4.11833 59.2938 4.115C58.9204 4.08167 58.6138 4.10667 58.3738 4.19C58.1338 4.27 57.9504 4.39667 57.8238 4.57C57.7004 4.74 57.6221 4.94 57.5888 5.17L57.1938 8H55.7388ZM61.9629 8.1C61.4662 8.1 61.0446 7.99333 60.6979 7.78C60.3512 7.56333 60.1012 7.25833 59.9479 6.865C59.7979 6.47167 59.7629 6.00833 59.8429 5.475C59.9162 4.95833 60.0796 4.49333 60.3329 4.08C60.5896 3.66333 60.9179 3.335 61.3179 3.095C61.7179 2.85167 62.1746 2.73 62.6879 2.73C63.2046 2.73 63.6196 2.84167 63.9329 3.065C64.2496 3.285 64.4679 3.59333 64.5879 3.99C64.7079 4.38333 64.7296 4.83833 64.6529 5.355L64.5929 5.75H61.2279C61.1846 6.01333 61.1896 6.24333 61.2429 6.44C61.2996 6.63333 61.3996 6.78333 61.5429 6.89C61.6862 6.99333 61.8696 7.045 62.0929 7.045C62.3329 7.045 62.5496 6.99167 62.7429 6.885C62.9396 6.77833 63.0929 6.60333 63.2029 6.36H64.4979C64.3879 6.72667 64.1996 7.04 63.9329 7.3C63.6662 7.56 63.3596 7.75833 63.0129 7.895C62.6662 8.03167 62.3162 8.1 61.9629 8.1ZM61.3479 4.88H63.3779C63.4079 4.67333 63.3979 4.48333 63.3479 4.31C63.3012 4.13667 63.2096 4 63.0729 3.9C62.9396 3.8 62.7596 3.75 62.5329 3.75C62.3196 3.75 62.1279 3.805 61.9579 3.915C61.7912 4.02167 61.6546 4.16167 61.5479 4.335C61.4412 4.50833 61.3746 4.69 61.3479 4.88ZM69.7791 9.61H68.3241L68.6491 7.225C68.5357 7.38833 68.3991 7.53667 68.2391 7.67C68.0791 7.8 67.9041 7.905 67.7141 7.985C67.5241 8.06167 67.3224 8.1 67.1091 8.1C66.7291 8.1 66.3924 8.00833 66.0991 7.825C65.8091 7.64167 65.5957 7.35 65.4591 6.95C65.3257 6.54667 65.3041 6.02167 65.3941 5.375C65.4741 4.79167 65.6207 4.305 65.8341 3.915C66.0507 3.52167 66.3174 3.22667 66.6341 3.03C66.9541 2.83 67.3091 2.73 67.6991 2.73C67.8691 2.73 68.0274 2.75167 68.1741 2.795C68.3241 2.835 68.4607 2.89333 68.5841 2.97C68.7074 3.04667 68.8157 3.13667 68.9091 3.24C69.0057 3.34 69.0857 3.45167 69.1491 3.575L69.2541 2.83H70.7091L69.7791 9.61ZM67.6091 7.03C67.8524 7.03 68.0641 6.95333 68.2441 6.8C68.4241 6.64667 68.5707 6.445 68.6841 6.195C68.7974 5.945 68.8724 5.675 68.9091 5.385C68.9691 4.93167 68.9307 4.55333 68.7941 4.25C68.6607 3.94333 68.4124 3.79 68.0491 3.79C67.7457 3.79 67.4707 3.925 67.2241 4.195C66.9807 4.46167 66.8241 4.85833 66.7541 5.385C66.6807 5.92833 66.7241 6.33833 66.8841 6.615C67.0441 6.89167 67.2857 7.03 67.6091 7.03ZM73.1111 8.1C72.8811 8.1 72.6578 8.06333 72.4411 7.99C72.2244 7.91667 72.0328 7.80833 71.8661 7.665C71.6994 7.52167 71.5744 7.345 71.4911 7.135C71.4111 6.925 71.3894 6.68167 71.4261 6.405L71.9261 2.83H73.3811L72.9061 6.22C72.8728 6.46 72.9194 6.65667 73.0461 6.81C73.1761 6.96333 73.3861 7.04 73.6761 7.04C73.9528 7.04 74.1811 6.96667 74.3611 6.82C74.5444 6.67 74.6544 6.46167 74.6911 6.195L75.1661 2.83H76.6061L75.8811 8H74.7861L74.7661 6.975C74.6628 7.27833 74.5178 7.51167 74.3311 7.675C74.1444 7.835 73.9428 7.945 73.7261 8.005C73.5128 8.06833 73.3078 8.1 73.1111 8.1ZM77.1809 8L77.9109 2.83H79.2959L78.5659 8H77.1809ZM78.0009 2.09L78.1859 0.775H79.5959L79.4109 2.09H78.0009ZM79.938 8L80.668 2.83H82.063L81.893 4.055C82.0096 3.79167 82.1563 3.56167 82.333 3.365C82.5096 3.165 82.7113 3.01 82.938 2.9C83.1646 2.78667 83.413 2.73 83.683 2.73C83.7296 2.73 83.7713 2.73333 83.808 2.74C83.848 2.74333 83.8763 2.75 83.893 2.76L83.693 4.15C83.6696 4.13667 83.638 4.12833 83.598 4.125C83.5613 4.12167 83.5263 4.11833 83.493 4.115C83.1196 4.08167 82.813 4.10667 82.573 4.19C82.333 4.27 82.1496 4.39667 82.023 4.57C81.8996 4.74 81.8213 4.94 81.788 5.17L81.393 8H79.938ZM86.1621 8.1C85.6654 8.1 85.2438 7.99333 84.8971 7.78C84.5504 7.56333 84.3004 7.25833 84.1471 6.865C83.9971 6.47167 83.9621 6.00833 84.0421 5.475C84.1154 4.95833 84.2788 4.49333 84.5321 4.08C84.7888 3.66333 85.1171 3.335 85.5171 3.095C85.9171 2.85167 86.3738 2.73 86.8871 2.73C87.4038 2.73 87.8188 2.84167 88.1321 3.065C88.4488 3.285 88.6671 3.59333 88.7871 3.99C88.9071 4.38333 88.9288 4.83833 88.8521 5.355L88.7921 5.75H85.4271C85.3838 6.01333 85.3888 6.24333 85.4421 6.44C85.4988 6.63333 85.5988 6.78333 85.7421 6.89C85.8854 6.99333 86.0688 7.045 86.2921 7.045C86.5321 7.045 86.7488 6.99167 86.9421 6.885C87.1388 6.77833 87.2921 6.60333 87.4021 6.36H88.6971C88.5871 6.72667 88.3988 7.04 88.1321 7.3C87.8654 7.56 87.5588 7.75833 87.2121 7.895C86.8654 8.03167 86.5154 8.1 86.1621 8.1ZM85.5471 4.88H87.5771C87.6071 4.67333 87.5971 4.48333 87.5471 4.31C87.5004 4.13667 87.4088 4 87.2721 3.9C87.1388 3.8 86.9588 3.75 86.7321 3.75C86.5188 3.75 86.3271 3.805 86.1571 3.915C85.9904 4.02167 85.8538 4.16167 85.7471 4.335C85.6404 4.50833 85.5738 4.69 85.5471 4.88ZM91.3733 8.1C90.6933 8.1 90.1966 7.86167 89.8833 7.385C89.5733 6.905 89.4766 6.23833 89.5933 5.385C89.7033 4.575 89.9633 3.93 90.3733 3.45C90.7866 2.97 91.3166 2.73 91.9633 2.73C92.1433 2.73 92.3083 2.75167 92.4583 2.795C92.6116 2.835 92.7466 2.89167 92.8633 2.965C92.9833 3.03833 93.0866 3.12333 93.1733 3.22C93.2599 3.31667 93.3266 3.42 93.3733 3.53L93.7783 0.57H95.2333L94.2133 8H93.1633L93.1433 6.94C93.0799 7.08333 92.9966 7.22333 92.8933 7.36C92.7933 7.49667 92.6716 7.62167 92.5283 7.735C92.3849 7.845 92.2183 7.93333 92.0283 8C91.8383 8.06667 91.6199 8.1 91.3733 8.1ZM91.8383 7.05C92.1883 7.05 92.4683 6.92167 92.6783 6.665C92.8883 6.40833 93.0349 5.975 93.1183 5.365C93.1649 5.01167 93.1649 4.71833 93.1183 4.485C93.0716 4.25167 92.9799 4.07833 92.8433 3.965C92.7099 3.84833 92.5266 3.79 92.2933 3.79C91.9866 3.79 91.7149 3.91167 91.4783 4.155C91.2449 4.395 91.0899 4.79833 91.0133 5.365C90.9333 5.94167 90.9699 6.36667 91.1233 6.64C91.2766 6.91333 91.5149 7.05 91.8383 7.05Z" fill="#F43030"/>
</svg>
